<svg width="169" height="44" fill="none" xmlns="http://www.w3.org/2000/svg"><path d="M56.66 11.392h12.88v3.92h-8.82v4.676h7.644v3.92H60.72V32h-4.06V11.392Zm16.145 8.372h3.92V32h-3.92V19.764Zm-.084-4.34c0-.579.224-1.055.672-1.428.467-.373.961-.56 1.484-.56s.999.187 1.428.56c.448.373.672.85.672 1.428 0 .579-.224 1.055-.672 1.428-.43.355-.905.532-1.428.532-.523 0-1.017-.177-1.484-.532a1.777 1.777 0 0 1-.672-1.428Zm8.041-5.516h3.92V32h-3.92V9.908Zm11.513 9.856.308 2.156-.056-.168c.486-.821 1.092-1.456 1.82-1.904.728-.467 1.606-.7 2.632-.7.672 0 1.26.093 1.764.28.523.187.962.467 1.316.84.355.355.597.821.728 1.4l-.14.028a6.547 6.547 0 0 1 1.876-1.848c.747-.467 1.521-.7 2.324-.7 1.213 0 2.175.345 2.884 1.036.728.672 1.101 1.55 1.12 2.632V32h-3.892v-7.56c-.019-.541-.103-.98-.252-1.316-.149-.355-.495-.55-1.036-.588-.635 0-1.176.224-1.624.672-.429.43-.756.99-.98 1.68a7.157 7.157 0 0 0-.308 2.1V32h-3.92v-7.56c-.019-.541-.121-.98-.308-1.316-.168-.355-.523-.55-1.064-.588a2.09 2.09 0 0 0-1.568.672c-.41.43-.728.98-.952 1.652a7.053 7.053 0 0 0-.308 2.072V32h-3.92V19.764h3.556Zm20.616-9.856h3.92V32h-3.92V9.908ZM126 32.336c-1.139 0-2.175-.224-3.108-.672-.915-.467-1.643-1.176-2.184-2.128-.541-.952-.812-2.165-.812-3.64 0-1.381.28-2.576.84-3.584.56-1.008 1.297-1.783 2.212-2.324.915-.56 1.885-.84 2.912-.84 1.213 0 2.128.205 2.744.616.635.392 1.157.83 1.568 1.316l-.168.476.364-1.792h3.64V32h-3.92v-2.66l.308.84c-.037 0-.149.112-.336.336a7.613 7.613 0 0 1-.84.756c-.355.28-.803.523-1.344.728-.523.224-1.148.336-1.876.336Zm1.12-3.192c.467 0 .887-.065 1.26-.196.373-.15.7-.355.98-.616.28-.28.523-.625.728-1.036V24.3a2.617 2.617 0 0 0-.672-1.036 2.87 2.87 0 0 0-1.064-.672 3.594 3.594 0 0 0-1.372-.252c-.56 0-1.083.15-1.568.448-.467.28-.84.672-1.12 1.176-.28.504-.42 1.083-.42 1.736s.149 1.241.448 1.764c.299.523.691.933 1.176 1.232a3.13 3.13 0 0 0 1.624.448Zm14.483-9.38.308 2.184-.056-.196a4.943 4.943 0 0 1 1.82-1.848c.784-.485 1.746-.728 2.884-.728 1.158 0 2.119.345 2.884 1.036.784.672 1.186 1.55 1.204 2.632V32h-3.92v-7.7c-.018-.541-.168-.97-.448-1.288-.261-.336-.709-.504-1.344-.504-.597 0-1.12.196-1.568.588-.448.392-.793.924-1.036 1.596-.242.672-.364 1.447-.364 2.324V32h-3.92V19.764h3.556Zm19.089 12.572c-1.493 0-2.762-.28-3.808-.84-1.026-.56-1.81-1.335-2.352-2.324-.541-.99-.812-2.128-.812-3.416 0-1.232.318-2.343.952-3.332a6.873 6.873 0 0 1 2.548-2.352c1.064-.597 2.25-.896 3.556-.896 1.755 0 3.192.513 4.312 1.54 1.139 1.008 1.876 2.473 2.212 4.396l-9.52 3.024-.868-2.128 6.888-2.324-.812.364a2.775 2.775 0 0 0-.812-1.26c-.373-.373-.942-.56-1.708-.56-.578 0-1.092.14-1.54.42-.429.261-.765.644-1.008 1.148-.224.485-.336 1.064-.336 1.736 0 .765.14 1.41.42 1.932.28.504.663.887 1.148 1.148a3.373 3.373 0 0 0 1.624.392c.43 0 .84-.075 1.232-.224.411-.15.812-.345 1.204-.588l1.736 2.912a9.825 9.825 0 0 1-2.128.896 7.406 7.406 0 0 1-2.128.336Z" fill="#fff"/><path fill-rule="evenodd" clip-rule="evenodd" d="M44 22c0 12.15-9.85 22-22 22S0 34.15 0 22 9.85 0 22 0s22 9.85 22 22Zm-28-4a5 5 0 1 1-10 0 5 5 0 0 1 10 0Zm-1 18a5 5 0 1 0 0-10 5 5 0 0 0 0 10Zm19-5a5 5 0 1 1-10 0 5 5 0 0 1 10 0Zm-1-8a5 5 0 1 0 0-10 5 5 0 0 0 0 10Zm-6-13a5 5 0 1 1-10 0 5 5 0 0 1 10 0Zm-5 14a2 2 0 1 0 0-4 2 2 0 0 0 0 4Z" fill="#E2D703"/><path d="M33.5 38.5c2-1.333 9.5-3.5 16 1.5" stroke="#E2D703" stroke-width="3" stroke-linecap="round" stroke-linejoin="round"/></svg>